<svg xmlns="http://www.w3.org/2000/svg" viewBox="0 0 260 300" role="img" aria-label="Lamina de piercings barbell y herraduras en estilo editorial">
  <rect width="260" height="300" fill="#ececec"/>
  <g fill="none" stroke="#1b1b1b" stroke-linecap="round" stroke-linejoin="round">
    <path d="M26 70c14-20 40-32 68-32s54 12 68 32" stroke-width="3.8"/>
    <path d="M100 38l-10 18" stroke-width="3.8"/>
    <path d="M154 38l10 18" stroke-width="3.8"/>

    <path d="M170 76h68" stroke-width="3.8"/>
    <circle cx="170" cy="76" r="8" fill="#d9d9d9" stroke-width="3"/>
    <circle cx="238" cy="76" r="8" fill="#d9d9d9" stroke-width="3"/>

    <path d="M22 126h64" stroke-width="3.6"/>
    <path d="M22 126l12-8m-12 8l12 8" stroke-width="2.8"/>
    <path d="M86 126l-12-8m12 8l-12 8" stroke-width="2.8"/>

    <path d="M120 128h84" stroke-width="3.6"/>
    <circle cx="120" cy="128" r="7" fill="#d7d7d7" stroke-width="2.8"/>
    <circle cx="204" cy="128" r="7" fill="#d7d7d7" stroke-width="2.8"/>

    <path d="M26 204c0-22 18-40 40-40s40 18 40 40" stroke-width="3.6"/>
    <circle cx="38" cy="210" r="9" fill="#efefef" stroke-width="2.8"/>
    <circle cx="94" cy="210" r="9" fill="#efefef" stroke-width="2.8"/>

    <path d="M128 210c0-22 18-40 40-40s40 18 40 40" stroke-width="3.6"/>
    <circle cx="140" cy="216" r="8" fill="#d7d7d7" stroke-width="2.8"/>
    <circle cx="196" cy="216" r="8" fill="#d7d7d7" stroke-width="2.8"/>

    <path d="M34 270c8-18 28-30 50-30s42 12 50 30" stroke-width="3.4"/>
    <circle cx="48" cy="274" r="8" fill="#eeeeee" stroke-width="2.6"/>
    <circle cx="120" cy="274" r="8" fill="#eeeeee" stroke-width="2.6"/>

    <path d="M154 272c7-16 25-27 44-27s37 11 44 27" stroke-width="3.4"/>
    <circle cx="166" cy="276" r="7" fill="#d6d6d6" stroke-width="2.6"/>
    <circle cx="242" cy="276" r="7" fill="#d6d6d6" stroke-width="2.6"/>
  </g>
  <g stroke="#bdbdbd" stroke-width="1">
    <line x1="0" y1="24" x2="260" y2="24"/>
    <line x1="0" y1="286" x2="260" y2="286"/>
  </g>
</svg>
